# xmcd
# 
# Track frame offsets:
#     150
#     17671
#     34038
#     48451
#     65916
#     79762
#     94311
#     111048
#     124336
#     133709
#     150844
#     164778
#     181553
#     196411
#     209967
#     222966
#     238336
#     252131
#     267794
#     285390
# 
# Disc length: 4024
# 
# Revision: 2
# Processed by: cddbd v1.5.2PL0 Copyright (c) Steve Scherf et al.
# Submitted via: fre:ac v1.0.31
# 
DISCID=280fb614
DTITLE=Various Artist - Line Dance Fever 16
DYEAR=2005
DGENRE=Country
TTITLE0=Jive Bunny - Glenn Miller Medley
TTITLE1=Tim McGraw - Open Season On My Heart
TTITLE2=Texas Tommy - Amarillo
TTITLE3=Kool and The Gang - Fresh
TTITLE4=Bellamy Brothers - Let Your Love Flow
TTITLE5=Soul Control - Chocolate
TTITLE6=Billy Dean - Let Them Be Little
TTITLE7=LeAnn Rimes - Nothin 'bout Love Makes Sense
TTITLE8=The Elvis Collection - Don't Be Cruel
TTITLE9=Junior Brown - My Wife Thinks You're Dead
TTITLE10=Shelby Lynn - Restless
TTITLE11=Kimberley Locke - Coulda Been
TTITLE12=Jo Dee Messina - My Give A Damn's Busted
TTITLE13=Blue County - Good Little Girls
TTITLE14=Ray Stevens - Misty
TTITLE15=John Paul Young - Love Is In The Air
TTITLE16=Hal Ketchum - Hearts Are Gonna Roll
TTITLE17=The Original Brothers - Man Of Constant Sorrow
TTITLE18=Fernando Ortega - Mildred Madalyn Johnson
TTITLE19=Kaci - As If
EXTD=
EXTT0=
EXTT1=
EXTT2=
EXTT3=
EXTT4=
EXTT5=
EXTT6=
EXTT7=
EXTT8=
EXTT9=
EXTT10=
EXTT11=
EXTT12=
EXTT13=
EXTT14=
EXTT15=
EXTT16=
EXTT17=
EXTT18=
EXTT19=
PLAYORDER=
